<?xml version="1.0" standalone="no"?><!DOCTYPE svg PUBLIC "-//W3C//DTD SVG 1.1//EN" "http://www.w3.org/Graphics/SVG/1.1/DTD/svg11.dtd"><svg t="1668650513040" class="icon" viewBox="0 0 1024 1024" version="1.1" xmlns="http://www.w3.org/2000/svg" p-id="3732" xmlns:xlink="http://www.w3.org/1999/xlink" width="128" height="128"><path d="M308.366 205.652C366.811 166.685 436.988 144 512.499 144c203.517 0 368.5 164.983 368.5 368.5S716.016 881 512.499 881c-200.835 0-364.144-160.663-368.414-360.474-0.095-4.417-3.668-8.026-8.086-8.026h-64c-4.418 0-8.007 3.612-7.93 8.03C68.354 764.525 267.483 961 512.5 961c247.7 0 448.5-200.8 448.5-448.5S760.199 64 512.499 64c-101.787 0-195.691 33.941-270.949 91.068l-0.106-43.452a8 8 0 0 0-8.004-7.982l-56.005 0.022a8 8 0 0 0-7.997 8.012l0.214 134.17c0.028 17.673 14.377 31.976 32.05 31.949l140.322-0.218a8 8 0 0 0 7.988-8.004l-0.022-55.995a7.999 7.999 0 0 0-8.017-7.996l-33.607 0.078z" p-id="3733"></path><path d="M471.999 265a8 8 0 0 1 8-8h64a8 8 0 0 1 8 8v231.524L724.26 670.148a8 8 0 0 1-0.044 11.314l-45.433 45.076a8 8 0 0 1-11.314-0.045L476.641 534.155a16.003 16.003 0 0 1-4.642-11.269V265z" p-id="3734"></path></svg>